<svg width="177" height="177" viewBox="0 0 177 177" fill="none" xmlns="http://www.w3.org/2000/svg">
<g filter="url(#filter0_i_22_50)">
<path d="M100.29 103.547C100.275 101.864 100.053 100.103 99.4976 98.5229C97.535 92.9516 91.7461 89.7375 85.9364 90.8068C80.2511 91.8567 76.0773 96.8357 76.0676 102.726C76.0468 117.6 76.0542 132.474 76.0566 147.346C76.0291 149.685 75.0769 151.918 73.4064 153.562C71.7359 155.206 69.4818 156.128 67.1331 156.128C64.7843 156.128 62.5302 155.206 60.8597 153.562C59.1892 151.918 58.237 149.685 58.2095 147.346C58.2059 132.167 58.1961 116.989 58.2412 101.81C58.2461 99.7743 58.507 97.7036 58.9263 95.7081C61.9262 81.3794 75.5507 71.2685 90.3369 72.3282C105.07 73.3829 117.245 85.2052 117.944 99.7888C118.23 105.696 118.294 115.859 118.309 123.306C118.319 128.336 114.106 132.533 109.054 132.533C104.242 132.533 100.308 128.712 100.29 123.921C100.264 117.129 100.352 110.334 100.29 103.542" fill="#F95828"/>
<path d="M162.902 132.537C158.026 132.537 154.176 128.73 154.171 123.878C154.164 117.369 154.152 108.761 154.081 103.747C154.026 100.053 153.843 96.315 153.208 92.6846C147.074 57.9048 115.717 34.4957 80.5705 38.3434C50.5495 41.6243 26.2724 65.6948 22.7349 95.7166C22.2168 100.081 18.6757 103.468 14.2605 103.468H13.5962C8.51427 103.468 4.56966 99.3677 5.03774 94.3304C5.23278 92.2403 5.46073 90.2242 5.71062 88.815C14.4568 39.6519 65.0798 8.62993 112.81 23.9261C145.315 34.344 164.611 57.1304 170.952 90.6199C172 100.389 171.999 112.687 172 123.522C172.001 128.52 167.921 132.537 162.902 132.537Z" fill="#F95828"/>
<path d="M126.986 102.953C126.985 102.953 126.984 102.953 126.983 102.953C126.983 102.952 126.982 102.952 126.982 102.951C126.981 102.951 126.981 102.95 126.981 102.949C126.981 102.949 126.981 102.948 126.981 102.947C126.961 100.845 126.867 98.7268 126.591 96.6476C123.655 74.7108 101.931 59.5628 80.2158 64.2723C61.9019 68.2462 49.3427 83.8203 49.3074 102.692C49.2794 117.549 49.2989 132.404 49.305 147.26C49.3057 149.6 48.3786 151.846 46.7252 153.509C45.0719 155.172 42.826 156.118 40.4759 156.141C39.2969 156.153 38.1274 155.932 37.0348 155.491C35.9421 155.049 34.9481 154.397 34.1101 153.571C33.272 152.746 32.6066 151.763 32.1522 150.679C31.6978 149.596 31.4635 148.434 31.4628 147.26C31.453 132.576 31.4323 117.892 31.5115 103.212C31.5249 99.7536 31.8504 96.2616 32.4123 92.8423C37.398 62.5657 67.653 41.4822 97.969 47.0741C125.528 52.1599 144.833 75.2412 144.842 103.115C144.842 109.478 144.908 133.878 144.964 147.387C144.985 152.348 140.842 156.505 135.859 156.505C133.554 156.505 131.343 155.596 129.71 153.976C128.078 152.356 127.156 150.158 127.148 147.863L126.99 102.957C126.99 102.954 126.989 102.953 126.986 102.953Z" fill="#F95828"/>
</g>
<defs>
<filter id="filter0_i_22_50" x="5" y="20" width="167" height="144.684" filterUnits="userSpaceOnUse" color-interpolation-filters="sRGB">
<feFlood flood-opacity="0" result="BackgroundImageFix"/>
<feBlend mode="normal" in="SourceGraphic" in2="BackgroundImageFix" result="shape"/>
<feColorMatrix in="SourceAlpha" type="matrix" values="0 0 0 0 0 0 0 0 0 0 0 0 0 0 0 0 0 0 127 0" result="hardAlpha"/>
<feOffset dy="8.179"/>
<feGaussianBlur stdDeviation="5.112"/>
<feComposite in2="hardAlpha" operator="arithmetic" k2="-1" k3="1"/>
<feColorMatrix type="matrix" values="0 0 0 0 1 0 0 0 0 1 0 0 0 0 1 0 0 0 0.46 0"/>
<feBlend mode="normal" in2="shape" result="effect1_innerShadow_22_50"/>
</filter>
</defs>
</svg>
